<svg width="24" height="24" viewBox="0 0 24 24" fill="none" xmlns="http://www.w3.org/2000/svg">
<rect x="3" y="6.71564" width="17.955" height="11.2771" fill="#555555"/>
<path d="M3 6.79484C3 8.8811 3.00299 10.5852 3.00748 10.5807C3.01346 10.5762 3.16596 10.2225 3.34837 9.79534L3.68179 9.01749H4.2619H4.84351L5.01994 9.42964C5.11563 9.65595 5.20235 9.85229 5.21132 9.86428C5.22178 9.87927 5.22627 9.75187 5.22627 9.44763L5.22776 9.00999H5.94992H6.67207L6.78122 9.32473C6.84252 9.49858 6.89634 9.63647 6.90083 9.63047C6.90531 9.62598 6.95764 9.48659 7.01446 9.32023L7.12062 9.01749L10.3606 9.01299L13.6006 9.00999V9.16736C13.6006 9.25429 13.6051 9.32473 13.6125 9.32473C13.6185 9.32473 13.6574 9.30075 13.6978 9.27077C13.8174 9.18535 13.9983 9.09992 14.1523 9.05795L14.2958 9.01898L15.453 9.01749H16.6103L16.7882 9.43714C16.8869 9.66794 16.9721 9.86278 16.9811 9.87177C16.9886 9.87927 16.9945 9.7219 16.9945 9.44763V9.00999L17.6031 9.01299L18.2116 9.01749L18.3701 9.26328L18.5271 9.51057L18.5315 9.26028L18.5345 9.00999H19.1401H19.7456V10.4188V11.8276H19.1416H18.539L18.3835 11.5804C18.2983 11.4455 18.2236 11.3346 18.2176 11.3331C18.2101 11.3331 18.2056 11.444 18.2056 11.5804V11.8276L17.3205 11.8246L16.4354 11.8202L16.3516 11.6103L16.2679 11.4005L16.0212 11.396L15.776 11.393L15.6923 11.6058L15.607 11.8202H14.9297C14.2734 11.8202 14.2465 11.8187 14.1239 11.7857C13.9729 11.7467 13.786 11.6583 13.6858 11.5833C13.6469 11.5519 13.6125 11.5279 13.608 11.5279C13.6036 11.5279 13.6006 11.5953 13.6006 11.6778V11.8276L12.693 11.8261H11.784L11.612 11.6103C11.5178 11.4919 11.4356 11.3945 11.4296 11.393C11.4221 11.393 11.4177 11.4904 11.4177 11.6103V11.8276L8.04461 11.8246L4.67157 11.8202L4.58635 11.6103L4.49963 11.4005H4.25443H4.00922L3.924 11.6103L3.84027 11.8202L3.42014 11.8246L3 11.8276V16.4138V21H11.9783H20.9567V18.1659C20.9567 16.6072 20.9522 15.3347 20.9462 15.3377C20.9387 15.3392 20.8774 15.3707 20.8072 15.4052C20.5515 15.5341 20.8834 15.5221 17.4207 15.5266L14.3407 15.5296L14.1612 15.3092L13.9818 15.0874L13.9773 15.3077L13.9729 15.5296H13.3912H12.8081V15.1549C12.8081 14.948 12.8052 14.7802 12.8007 14.7802C12.7977 14.7802 12.7453 14.7967 12.6855 14.8162C12.5405 14.8656 12.3716 14.8851 12.1024 14.8851H11.8812V15.2073V15.5296H10.9915H10.1034L9.9584 15.3377C9.87766 15.2328 9.8044 15.1384 9.79543 15.1279C9.78048 15.1114 9.74609 15.1459 9.61601 15.3182L9.45453 15.5296H7.97584H6.49864V14.1207V12.7119H7.98331L9.4665 12.7134L9.62349 12.9217C9.7102 13.0356 9.78496 13.1301 9.78945 13.1316C9.79543 13.1316 9.87168 13.0371 9.95989 12.9217L10.1199 12.7119H15.5383H20.9567V7.85595V3H11.9783H3V6.79484Z" fill="#E2E2E2"/>
<path d="M3.89857 9.38766C3.89109 9.40714 3.68626 9.88524 3.44404 10.4533L3.00298 11.4829L3.3035 11.4799L3.60402 11.4754L3.68775 11.2656L3.77148 11.0558L4.25142 11.0513L4.73136 11.0483L4.81808 11.2656L4.90629 11.4829H5.20981C5.37577 11.4829 5.51183 11.4784 5.51183 11.4709C5.51183 11.4649 5.30998 10.9868 5.06179 10.4068L4.61175 9.35468H4.26189C3.91202 9.35468 3.91053 9.35468 3.89857 9.38766ZM4.39794 10.224C4.46971 10.4008 4.53101 10.5552 4.5355 10.5642C4.54148 10.5792 4.48018 10.5837 4.25591 10.5837C3.98828 10.5837 3.96884 10.5822 3.97781 10.5567C4.04659 10.3678 4.24993 9.88224 4.2574 9.89124C4.26338 9.89723 4.32618 10.0471 4.39794 10.224Z" fill="#E2E2E2"/>
<path d="M5.57162 10.4188V11.4829H5.84075H6.10988L6.11287 10.7215L6.11735 9.96168L6.38648 10.723L6.6556 11.4829L6.89333 11.4799L7.13106 11.4754L7.40168 10.7141L7.6723 9.95269L7.67679 10.7185L7.67978 11.4829H7.9489H8.21803V10.4188V9.35468H7.79341H7.37028L7.14153 10.0096C7.01743 10.3708 6.90978 10.6721 6.9038 10.6781C6.89782 10.6841 6.78718 10.3903 6.66009 10.0261L6.42834 9.36218L5.99924 9.35768L5.57162 9.35468V10.4188Z" fill="#E2E2E2"/>
<path d="M8.5724 9.36518C8.56642 9.36967 8.56194 9.84927 8.56194 10.4293V11.4829H9.42912H10.2963V11.2431V11.0033H9.70572H9.11514V10.8235V10.6436H9.69077H10.2664V10.4113V10.179H9.69077H9.11514V10.0066V9.83428H9.70572H10.2963V9.59448V9.35468H9.43958C8.96712 9.35468 8.57689 9.35918 8.5724 9.36518Z" fill="#E2E2E2"/>
<path d="M10.5953 10.4173V11.4829H10.8645H11.1336V11.1082V10.7335H11.2382H11.3414L11.6584 11.1082L11.9754 11.4829H12.3088H12.6437L12.3118 11.1082C12.1279 10.9014 11.9768 10.7275 11.9739 10.7215C11.9724 10.7141 12.0068 10.6976 12.0516 10.6841C12.1533 10.6511 12.2938 10.5582 12.3536 10.4832C12.4912 10.3124 12.542 10.0726 12.4867 9.85976C12.4553 9.74136 12.4134 9.66343 12.3327 9.5765C12.252 9.48957 12.1697 9.43861 12.0411 9.39515C11.9529 9.36518 11.9126 9.36368 11.2726 9.35768L10.5953 9.35318V10.4173ZM11.8498 9.87175C11.9215 9.91372 11.9574 9.96767 11.9589 10.0381C11.9634 10.122 11.932 10.188 11.8677 10.227C11.8169 10.2599 11.7959 10.2614 11.4745 10.2659L11.1336 10.2704V10.0516V9.83279L11.467 9.83728C11.7675 9.84178 11.8034 9.84478 11.8498 9.87175Z" fill="#E2E2E2"/>
<path d="M12.7184 10.4188V11.4829H12.9876H13.2567V10.4188V9.35468H12.9876H12.7184V10.4188Z" fill="#E2E2E2"/>
<path d="M14.3242 9.37719C13.9968 9.43564 13.7725 9.59601 13.635 9.86878C13.466 10.2075 13.478 10.7186 13.6649 11.0483C13.8024 11.2941 14.0925 11.459 14.4154 11.4769L14.55 11.4859L14.6576 11.2476L14.7653 11.0108L14.6053 11.0018C14.3571 10.9868 14.2539 10.9389 14.1538 10.789C14.079 10.6796 14.0581 10.5777 14.0671 10.3739C14.076 10.1805 14.1164 10.0801 14.23 9.97819C14.3496 9.87028 14.393 9.86129 14.8012 9.85229L15.1555 9.8463V9.6005V9.35471L14.7937 9.35621C14.5664 9.35621 14.39 9.3652 14.3242 9.37719Z" fill="#E2E2E2"/>
<path d="M15.6638 9.38766C15.6564 9.40714 15.4515 9.88524 15.2093 10.4533L14.7697 11.4829L15.0703 11.4799L15.3708 11.4754L15.4545 11.2656L15.5382 11.0558L16.0182 11.0513L16.4981 11.0483L16.5848 11.2656L16.6731 11.4829H16.9766C17.2607 11.4829 17.2816 11.4814 17.2726 11.4559C17.2666 11.4424 17.0633 10.9628 16.8196 10.3918L16.3755 9.35468H16.0272C15.6788 9.35468 15.6788 9.35468 15.6638 9.38766ZM16.1677 10.2359L16.3053 10.5762L16.0272 10.5807C15.8747 10.5822 15.7461 10.5807 15.7431 10.5777C15.7386 10.5732 15.7984 10.4158 15.8747 10.2255C15.9509 10.0351 16.0167 9.88374 16.0227 9.88824C16.0272 9.89274 16.0915 10.0501 16.1677 10.2359Z" fill="#E2E2E2"/>
<path d="M17.3384 10.4188V11.4829H17.6075H17.8767L17.8797 10.8115L17.8841 10.14L18.3103 10.8085L18.7364 11.4754L19.0698 11.4799L19.4017 11.4829L19.3987 10.4233L19.3942 9.36218L19.1296 9.35768L18.8635 9.35468L18.8605 10.0081L18.856 10.6616L18.4373 10.0081L18.0187 9.35468H17.6793H17.3384V10.4188Z" fill="#E2E2E2"/>
<path d="M6.85745 14.1207V15.1848H7.71716H8.57687V14.945V14.7052H7.98629H7.3957V14.5254V14.3455H7.97133H8.54696V14.1132V13.8809H7.97133H7.3957V13.7161V13.5512H7.98629H8.57687V13.3039V13.0566H7.71716H6.85745V14.1207Z" fill="#E2E2E2"/>
<path d="M8.62173 13.0641C8.62173 13.0686 8.81012 13.3084 9.04037 13.5977C9.29903 13.9214 9.45602 14.1297 9.44855 14.1402C9.43808 14.1582 8.68453 15.1069 8.63968 15.1579C8.61874 15.1833 8.6337 15.1848 8.95216 15.1848L9.28707 15.1833L9.5263 14.8626C9.65787 14.6858 9.77 14.5419 9.77449 14.5419C9.77898 14.5404 9.8941 14.6858 10.0287 14.8626L10.2739 15.1848H10.6148H10.9571L10.9123 15.1279C10.3471 14.419 10.1169 14.1252 10.1169 14.1132C10.1169 14.1057 10.3023 13.8689 10.528 13.5887C10.7538 13.3084 10.9392 13.0746 10.9392 13.0671C10.9392 13.0611 10.7957 13.0566 10.6192 13.0566H10.2993L10.241 13.1271C10.2081 13.1675 10.0959 13.3114 9.99129 13.4493C9.88513 13.5887 9.79542 13.7011 9.78944 13.7011C9.78496 13.6996 9.66983 13.5557 9.53527 13.3789L9.29156 13.0566H8.95665C8.77274 13.0566 8.62173 13.0596 8.62173 13.0641Z" fill="#E2E2E2"/>
<path d="M10.999 14.1192V15.1848H11.2681H11.5373V14.8416V14.4984L11.9529 14.4924C12.3342 14.4864 12.3745 14.4834 12.4553 14.4535C12.7872 14.3306 12.9651 14.0248 12.9143 13.6681C12.8754 13.3848 12.7124 13.187 12.4448 13.0971C12.3566 13.0671 12.3162 13.0656 11.6763 13.0596L10.999 13.0551V14.1192ZM12.2923 13.5962C12.3506 13.6501 12.3745 13.7056 12.3745 13.7835C12.3745 13.8689 12.3446 13.9274 12.2818 13.9739C12.234 14.0068 12.2205 14.0083 11.8856 14.0128L11.5373 14.0173V13.7835V13.5497L11.8946 13.5542L12.2519 13.5587L12.2923 13.5962Z" fill="#E2E2E2"/>
<path d="M13.152 14.1192V15.1848H13.4211H13.6903V14.8102V14.4355H13.7919H13.8951L14.2076 14.8087L14.5201 15.1833H14.8535C15.0359 15.1848 15.1854 15.1818 15.1854 15.1788C15.1854 15.1759 15.0344 15.0035 14.849 14.7937L14.5126 14.4145L14.5948 14.389C14.6397 14.3755 14.704 14.347 14.7399 14.3261C14.8311 14.2736 14.9566 14.1357 14.9985 14.0413C15.145 13.7221 15.0254 13.3159 14.7413 13.1645C14.553 13.0656 14.5574 13.0656 13.8218 13.0596L13.152 13.0551V14.1192ZM14.4094 13.5737C14.4707 13.6067 14.5126 13.6801 14.5126 13.758C14.5126 13.8435 14.4752 13.9049 14.4005 13.9409C14.3451 13.9679 14.3063 13.9709 14.0147 13.9709H13.6903V13.761V13.5512H14.0267C14.3033 13.5512 14.3735 13.5557 14.4094 13.5737Z" fill="#E2E2E2"/>
<path d="M15.2751 14.1207V15.1848H16.1423H17.0095V14.945V14.7052H16.4115H15.8134V14.5254V14.3455H16.3965H16.9811L16.9766 14.1162L16.9721 13.8884L16.3935 13.8839L15.8134 13.8809V13.7161V13.5512L16.4085 13.5482L17.002 13.5437V13.3039V13.0641L16.1393 13.0596L15.2751 13.0566V14.1207Z" fill="#E2E2E2"/>
<path d="M17.763 13.0716C17.5029 13.1091 17.2995 13.2619 17.2158 13.4808C17.1769 13.5812 17.1635 13.7895 17.1889 13.8974C17.2442 14.1357 17.4072 14.2931 17.6494 14.344C17.6928 14.353 17.8707 14.3605 18.0501 14.3605C18.4074 14.3605 18.4553 14.3695 18.4957 14.449C18.5256 14.5059 18.5256 14.5838 18.4957 14.6273C18.4433 14.7037 18.4299 14.7052 17.8094 14.7052H17.2338V14.945V15.1848H17.8438C18.3342 15.1848 18.4702 15.1803 18.548 15.1624C18.7558 15.1129 18.9143 14.9855 19.0025 14.7982C19.0489 14.7007 19.0504 14.6903 19.0504 14.5029C19.0504 14.3201 19.0474 14.3021 19.007 14.2137C18.9532 14.0953 18.8365 13.9858 18.7214 13.9424C18.5928 13.8944 18.4732 13.8809 18.1488 13.8809C17.8139 13.8809 17.7765 13.8734 17.7346 13.791C17.6972 13.7176 17.7062 13.6591 17.763 13.6022L17.8139 13.5512H18.3073C18.687 13.5512 18.8051 13.5467 18.8141 13.5317C18.8395 13.4928 19.013 13.0956 19.013 13.0761C19.013 13.0596 18.9008 13.0566 18.4269 13.0581C18.1039 13.0596 17.8049 13.0656 17.763 13.0716Z" fill="#E2E2E2"/>
<path d="M19.6978 13.0716C19.5737 13.0926 19.4421 13.145 19.3643 13.2035C19.1715 13.3503 19.0773 13.5916 19.1176 13.8434C19.158 14.1027 19.309 14.2721 19.5587 14.338C19.6245 14.3545 19.7292 14.3605 19.9714 14.3605C20.1657 14.3605 20.3138 14.3665 20.3392 14.377C20.4423 14.416 20.4842 14.5074 20.4423 14.6063C20.402 14.7037 20.3885 14.7052 19.7456 14.7052H19.1774V14.9465V15.1863L19.8248 15.1818C20.4483 15.1758 20.4737 15.1758 20.559 15.1428C20.7339 15.0769 20.8371 14.9885 20.9298 14.8251C20.9851 14.7277 21.006 14.6123 20.9985 14.4474C20.994 14.3335 20.9851 14.2916 20.9522 14.2241C20.8909 14.0967 20.8191 14.0233 20.698 13.9633C20.556 13.8944 20.4558 13.8809 20.085 13.8809C19.8204 13.8809 19.7665 13.8764 19.7306 13.8554C19.6484 13.8075 19.6275 13.6756 19.6918 13.6006L19.7277 13.5587L20.239 13.5512L20.7503 13.5437L20.8475 13.3264C20.8998 13.2065 20.9492 13.103 20.9582 13.0941C20.9656 13.0866 20.9716 13.0746 20.9716 13.0686C20.9716 13.0536 19.7905 13.0566 19.6978 13.0716Z" fill="#E2E2E2"/>
</svg>
