<svg width="24" height="24" viewBox="0 0 24 24" fill="none" xmlns="http://www.w3.org/2000/svg">
<path fill-rule="evenodd" clip-rule="evenodd" d="M0 10.292C0 10.2293 0.00964725 10.2076 0.0795899 10.2076C0.441362 10.2124 0.800722 10.2028 1.16249 10.2148C1.69309 10.2317 2.17546 10.3861 2.56858 10.7599C2.83388 11.0107 3.01236 11.3388 3.07506 11.7005C3.20771 12.4289 3.00271 13.0487 2.44799 13.5432C2.1441 13.8133 1.77992 13.9483 1.37956 13.9821C0.938196 14.0183 0.49201 13.9893 0.0506481 13.999C-0.00241182 14.0014 0.00241181 13.9725 0.00241181 13.9387C0.00241181 13.5649 0.00241181 10.895 0 10.292ZM0.738015 13.2851C0.738015 13.3357 0.747663 13.3526 0.803134 13.3526C0.950255 13.3502 1.09979 13.3526 1.24691 13.3357C1.51462 13.3068 1.76545 13.2296 1.96322 13.0318C2.29122 12.7014 2.41181 12.3011 2.32017 11.8476C2.22852 11.3942 1.96563 11.0662 1.50738 10.9239C1.2855 10.854 1.05396 10.8588 0.822429 10.8564C0.75731 10.8564 0.733192 10.8684 0.735603 10.9408C0.740427 11.3291 0.740427 12.892 0.738015 13.2851Z" fill="#E2E2E2"/>
<path fill-rule="evenodd" clip-rule="evenodd" d="M22.384 12.4096L23.5707 13.9966H23.4115C23.1896 13.9966 22.9653 13.9941 22.741 13.999C22.6735 14.0014 22.6397 13.9749 22.6035 13.9242C22.2948 13.4611 21.9837 12.9981 21.6702 12.5374C21.6653 12.5326 21.6605 12.5253 21.6581 12.5181C21.6388 12.4723 21.5978 12.4747 21.564 12.4819C21.5303 12.4892 21.5447 12.5278 21.5423 12.5495C21.5423 13.0029 21.5399 13.4563 21.5423 13.9097C21.5423 13.9845 21.5206 13.999 21.4507 13.999C21.2553 13.9941 21.06 13.9966 20.8646 13.999C20.8164 13.999 20.7947 13.9917 20.7947 13.9338C20.7971 12.7135 20.7971 11.4931 20.7947 10.2727C20.7947 10.2317 20.7995 10.21 20.8501 10.21C21.2746 10.2197 21.6967 10.1931 22.1163 10.2245C22.4082 10.2462 22.6831 10.3258 22.9074 10.5235C23.1775 10.7623 23.2523 11.0758 23.233 11.4207C23.2065 11.9272 22.9291 12.2625 22.4371 12.3879C22.4226 12.3927 22.4082 12.3999 22.384 12.4096ZM21.5447 11.3821C21.5447 11.551 21.5471 11.7174 21.5423 11.8862C21.5399 11.9441 21.5592 11.9562 21.6123 11.9537C21.7208 11.9489 21.8317 11.9513 21.9427 11.9393C22.2635 11.9055 22.4468 11.7198 22.4709 11.399C22.4902 11.1386 22.3575 10.9432 22.1115 10.8636C21.9499 10.8105 21.7811 10.8154 21.6147 10.813C21.5592 10.813 21.5423 10.825 21.5423 10.8829C21.5496 11.0469 21.5447 11.2157 21.5447 11.3821Z" fill="#E2E2E2"/>
<path fill-rule="evenodd" clip-rule="evenodd" d="M18.2261 10.2848C18.2261 10.2269 18.2381 10.21 18.2984 10.21C18.9496 10.2124 19.6008 10.2124 20.252 10.21C20.3027 10.21 20.3219 10.2197 20.3195 10.2751C20.3171 10.4512 20.3171 10.6249 20.3195 10.8009C20.3195 10.854 20.3002 10.8612 20.2544 10.8612C19.8516 10.8588 19.4465 10.8612 19.0437 10.8588C18.9762 10.8588 18.9617 10.8781 18.9617 10.9432C18.9665 11.1723 18.9641 11.399 18.9617 11.6282C18.9617 11.6861 18.9762 11.6981 19.034 11.6981C19.4223 11.6957 19.8106 11.6981 20.1989 11.6957C20.2592 11.6957 20.2713 11.715 20.2713 11.7705C20.2665 11.9393 20.2665 12.1057 20.2713 12.2745C20.2713 12.3276 20.2568 12.3397 20.2062 12.3397C19.8203 12.3372 19.4344 12.3397 19.0485 12.3372C18.9762 12.3372 18.9641 12.3589 18.9641 12.4241C18.9665 12.7087 18.9665 12.9957 18.9641 13.2803C18.9641 13.3381 18.9762 13.355 19.0365 13.355C19.4392 13.3526 19.8444 13.355 20.2472 13.3526C20.3075 13.3526 20.3195 13.3695 20.3195 13.4274C20.3147 13.601 20.3171 13.7723 20.3195 13.9459C20.3195 13.9869 20.3099 14.0014 20.2665 14.0014C19.6056 13.999 18.9424 13.999 18.2816 14.0014C18.2213 14.0014 18.2261 13.9725 18.2261 13.9339C18.2261 13.3189 18.2285 10.8877 18.2261 10.2848Z" fill="#E2E2E2"/>
<path fill-rule="evenodd" clip-rule="evenodd" d="M4.94181 12.9016C5.04069 13.0873 5.17334 13.2393 5.36629 13.3237C5.5737 13.4153 5.78835 13.4467 6.00542 13.3502C6.20077 13.2634 6.30689 13.1066 6.31654 12.892C6.32619 12.6773 6.21283 12.5398 6.02954 12.4482C5.81971 12.3445 5.593 12.2818 5.37835 12.1877C5.16852 12.0961 4.96834 11.9899 4.82363 11.8042C4.7368 11.6933 4.68374 11.5606 4.66686 11.4208C4.58968 10.7985 4.92975 10.3547 5.44829 10.2076C5.98854 10.0557 6.47331 10.1883 6.90985 10.5308C6.9412 10.5549 6.95326 10.5742 6.92191 10.6128C6.81096 10.7527 6.70243 10.8926 6.59872 11.0349C6.56737 11.0783 6.5529 11.0662 6.52396 11.0349C6.40578 10.9094 6.27072 10.8057 6.09465 10.7816C5.87277 10.7503 5.66294 10.7792 5.50617 10.9625C5.3687 11.1265 5.39764 11.3339 5.5737 11.4593C5.73047 11.5703 5.91136 11.6258 6.08983 11.6957C6.25625 11.7584 6.41784 11.8332 6.57219 11.9176C6.88814 12.0961 7.06179 12.3589 7.0835 12.7255C7.12209 13.3454 6.79408 13.8712 6.18872 14.0279C5.53994 14.1943 4.90804 14.0086 4.4908 13.396C4.47392 13.3695 4.4715 13.355 4.49562 13.3333C4.64033 13.1934 4.78986 13.0487 4.94181 12.9016Z" fill="#E2E2E2"/>
<path fill-rule="evenodd" clip-rule="evenodd" d="M14.2587 10.21C14.5167 10.21 14.7603 10.2124 15.0063 10.2076C15.0546 10.2076 15.0738 10.2245 15.0907 10.2679C15.3174 10.8395 15.9686 12.4771 16.0675 12.7304C16.1133 12.6797 16.7645 11.03 17.0708 10.2655C17.0829 10.2341 17.0925 10.2076 17.1359 10.2076C17.3868 10.21 17.6376 10.2076 17.8981 10.2076C17.8378 10.3499 16.7645 12.8968 16.2894 14.0327C16.2701 14.0786 16.2484 14.093 16.2026 14.0906C16.1085 14.0882 16.012 14.0882 15.918 14.0906C15.8818 14.0955 15.8504 14.0737 15.8408 14.0376C15.5466 13.3237 14.5143 10.8299 14.2948 10.2968C14.2804 10.2727 14.2707 10.2438 14.2587 10.21Z" fill="#E2E2E2"/>
<path fill-rule="evenodd" clip-rule="evenodd" d="M10.2309 11.235C10.091 11.1024 9.95838 10.989 9.79679 10.9143C9.16731 10.6224 8.41 10.936 8.16882 11.604C7.9807 12.1178 8.0434 12.6074 8.41965 13.0246C8.67047 13.3044 9.00089 13.4057 9.37231 13.4008C9.66655 13.3984 9.90774 13.2778 10.1224 13.0897C10.1537 13.0608 10.1851 13.0318 10.214 13.0053C10.2406 13.0198 10.2285 13.0415 10.2309 13.0608C10.2309 13.3092 10.2309 13.5576 10.2309 13.806C10.2309 13.8446 10.2261 13.8663 10.1851 13.8856C9.42537 14.2522 8.46306 14.1075 7.86975 13.4973C7.50316 13.1211 7.32227 12.6652 7.31021 12.1395C7.29092 11.2495 7.88422 10.4729 8.70906 10.2245C9.21554 10.0725 9.70997 10.1015 10.1875 10.3402C10.214 10.3523 10.2333 10.3644 10.2333 10.4005C10.2309 10.6707 10.2309 10.9432 10.2309 11.235Z" fill="#E2E2E2"/>
<path fill-rule="evenodd" clip-rule="evenodd" d="M4.19174 13.9145C4.19174 13.9773 4.18209 14.0014 4.11215 13.999C3.91197 13.9941 3.71179 13.9965 3.51161 13.999C3.46337 13.999 3.4489 13.9869 3.4489 13.9363C3.45131 12.7159 3.45131 11.4955 3.4489 10.2751C3.4489 10.2196 3.46819 10.21 3.51643 10.21C3.7142 10.2124 3.91197 10.2148 4.10974 10.21C4.17485 10.2076 4.19415 10.2245 4.19174 10.292C4.18933 10.8974 4.18933 13.314 4.19174 13.9145Z" fill="#E2E2E2"/>
<path fill-rule="evenodd" clip-rule="evenodd" d="M23.7105 10.1835C23.549 10.1811 23.4163 10.3113 23.4163 10.4729C23.4139 10.6345 23.5441 10.7671 23.7057 10.7671C23.8673 10.7695 24 10.6393 24 10.4777V10.4753C24.0024 10.3161 23.8721 10.1859 23.7105 10.1835ZM23.7105 10.7141C23.5827 10.7117 23.479 10.6055 23.4814 10.4753C23.4766 10.3499 23.5755 10.2438 23.7033 10.2389C23.8287 10.2341 23.9348 10.333 23.9397 10.4608C23.9397 10.4657 23.9397 10.4705 23.9397 10.4753C23.9421 10.6055 23.8408 10.7117 23.7105 10.7141Z" fill="#E2E2E2"/>
<path fill-rule="evenodd" clip-rule="evenodd" d="M23.7371 10.5067C23.7733 10.5549 23.8094 10.6007 23.8432 10.649H23.8287C23.8094 10.649 23.7877 10.649 23.7684 10.649C23.7636 10.649 23.7588 10.6465 23.7564 10.6417L23.672 10.5163C23.672 10.5163 23.672 10.5163 23.672 10.5139C23.6695 10.5091 23.6671 10.5091 23.6623 10.5115C23.6575 10.5139 23.6599 10.5163 23.6599 10.5163C23.6599 10.5573 23.6599 10.5983 23.6599 10.6393C23.6599 10.6465 23.6575 10.6465 23.6527 10.6465C23.6358 10.6465 23.6165 10.6465 23.5996 10.6465C23.5948 10.6465 23.5924 10.6465 23.5924 10.6417C23.5924 10.5308 23.5924 10.4222 23.5924 10.3113C23.5924 10.3065 23.5924 10.3065 23.5972 10.3065C23.6358 10.3065 23.6744 10.3041 23.7105 10.3089C23.7371 10.3089 23.7636 10.3185 23.7829 10.3354C23.8046 10.3571 23.8167 10.3861 23.8118 10.415C23.8118 10.4584 23.7805 10.4946 23.7395 10.5018L23.7371 10.5067ZM23.6599 10.4126C23.6599 10.4271 23.6599 10.4415 23.6599 10.4584C23.6599 10.4632 23.6623 10.4657 23.6671 10.4657C23.6768 10.4657 23.6864 10.4657 23.6961 10.4632C23.7226 10.4632 23.7443 10.4415 23.7443 10.415C23.7467 10.3933 23.7323 10.3716 23.713 10.3668C23.6985 10.362 23.684 10.362 23.6671 10.362C23.6623 10.362 23.6599 10.362 23.6599 10.3692C23.6599 10.3837 23.6599 10.3981 23.6599 10.4126Z" fill="#E2E2E2"/>
<path d="M12.4667 14.1123C13.5722 14.1123 14.4685 13.2128 14.4685 12.1033C14.4685 10.9937 13.5722 10.0942 12.4667 10.0942C11.3611 10.0942 10.4649 10.9937 10.4649 12.1033C10.4649 13.2128 11.3611 14.1123 12.4667 14.1123Z" fill="#E2E2E2"/>
</svg>
