<svg width="24" height="24" viewBox="0 0 24 24" fill="none" xmlns="http://www.w3.org/2000/svg">
<path d="M3.99748 5.28714C3.04534 5.9219 3 6.11837 3 9.62467V12.8136L3.40806 12.9949C3.64987 13.1007 4.17884 13.2216 4.61713 13.267C5.31234 13.3426 5.43325 13.3123 5.78086 12.9647C6.15869 12.5869 6.1738 12.4811 6.1738 11.0453V9.53399H7.0806H7.9874V11.0453C7.9874 12.9345 7.82116 13.3274 6.8539 13.7053C6.29471 13.9169 5.87154 13.9471 4.5869 13.8715L3 13.7808V16.1234V18.4509H4.94962C7.0806 18.4509 7.48866 18.3148 8.19899 17.3476C8.50126 16.9244 8.51637 16.7279 8.56171 10.9546L8.60705 4.99999H6.52141C4.73804 4.99999 4.37531 5.04533 3.99748 5.28714Z" fill="#E2E2E2"/>
<path d="M10.1939 5.28714C9.33248 5.86145 9.19646 6.25439 9.19646 8.27958V10.1234L9.84633 9.83626C10.3148 9.62467 10.8287 9.53399 11.7808 9.53399C13.6851 9.53399 14.0327 9.62467 14.0327 10.1385V10.5617L13.4735 10.3501C11.796 9.76069 10.4055 10.3803 10.4055 11.7405C10.4055 13.0554 11.7355 13.6599 13.3526 13.0856C13.6851 12.9647 13.9723 12.8589 14.0025 12.8589C14.0176 12.8589 14.0327 13.0554 14.0327 13.2972C14.0327 13.675 13.9723 13.7355 13.4735 13.8262C12.3249 14.0075 10.7229 13.9169 9.95212 13.6297L9.19646 13.3426V15.8967V18.4509H11.1461C13.2771 18.4509 13.6851 18.3148 14.3954 17.3476C14.6977 16.9244 14.7128 16.7279 14.7582 10.9546L14.8035 4.99999H12.7179C10.9345 4.99999 10.5718 5.04533 10.1939 5.28714Z" fill="#E2E2E2"/>
<path d="M16.6776 5.15112C16.5113 5.21157 16.1789 5.48361 15.9219 5.75565C15.4836 6.20905 15.4685 6.28462 15.4232 7.88664L15.3627 9.53399H17.1008C18.068 9.53399 19.0202 9.59444 19.2317 9.68512C20.0932 10.0025 20.2443 11.0151 19.4887 11.4232C19.1108 11.6196 19.1108 11.6347 19.398 11.7405C19.927 11.937 20.2292 12.2846 20.2292 12.738C20.2292 13.2065 19.7758 13.7657 19.3678 13.7808C19.2166 13.7808 18.2645 13.7808 17.2519 13.7657L15.393 13.7506V16.0932V18.4509H17.3426C19.4736 18.4509 19.8816 18.3148 20.592 17.3476C20.8942 16.9244 20.9093 16.7279 20.9547 10.9546L21 4.99999L18.9899 5.0151C17.8867 5.0151 16.8438 5.07555 16.6776 5.15112Z" fill="#E2E2E2"/>
<path d="M16.4509 10.7431V11.3476H17.1763C17.9471 11.3476 18.2645 11.1663 18.2645 10.7129C18.2645 10.3653 17.8111 10.1386 17.0705 10.1386H16.4509V10.7431Z" fill="#E2E2E2"/>
<path d="M16.4509 12.5567V13.1763L17.2972 13.131C18.2645 13.0856 18.6272 12.7834 18.3249 12.2846C18.204 12.1033 17.9169 12.0126 17.2972 11.9823L16.4509 11.937V12.5567Z" fill="#E2E2E2"/>
</svg>
