<svg width="24" height="24" viewBox="0 0 24 24" fill="none" xmlns="http://www.w3.org/2000/svg">
<path d="M21.6507 12.5832C21.6626 12.5832 21.6746 12.5852 21.6865 12.5912C21.6965 12.5952 21.7065 12.6032 21.7145 12.6111C21.7224 12.6191 21.7304 12.6291 21.7344 12.639C21.7443 12.661 21.7443 12.6869 21.7344 12.7088C21.7304 12.7188 21.7224 12.7287 21.7145 12.7367C21.7065 12.7447 21.6965 12.7526 21.6865 12.7566C21.6746 12.7606 21.6626 12.7646 21.6507 12.7646C21.6387 12.7646 21.6267 12.7626 21.6148 12.7566C21.6048 12.7526 21.5949 12.7447 21.5849 12.7367C21.5769 12.7287 21.5689 12.7188 21.565 12.7088C21.555 12.6869 21.555 12.661 21.565 12.639C21.5689 12.6291 21.5769 12.6191 21.5849 12.6111C21.6028 12.5932 21.6267 12.5852 21.6507 12.5832ZM21.6507 12.7427C21.6606 12.7427 21.6686 12.7407 21.6766 12.7367C21.6846 12.7327 21.6925 12.7287 21.6985 12.7227C21.7244 12.6948 21.7244 12.651 21.6985 12.6251C21.6925 12.6191 21.6846 12.6131 21.6766 12.6111C21.6686 12.6071 21.6586 12.6051 21.6507 12.6051C21.6407 12.6051 21.6327 12.6071 21.6228 12.6111C21.6148 12.6151 21.6068 12.6191 21.6008 12.6251C21.5949 12.6311 21.5889 12.639 21.5869 12.647C21.5789 12.6649 21.5789 12.6829 21.5869 12.7008C21.5909 12.7088 21.5949 12.7168 21.6008 12.7227C21.6148 12.7347 21.6327 12.7427 21.6507 12.7427ZM21.6566 12.6311C21.6646 12.6311 21.6746 12.633 21.6806 12.639C21.6865 12.643 21.6905 12.651 21.6885 12.659C21.6885 12.6649 21.6865 12.6709 21.6826 12.6749C21.6766 12.6789 21.6706 12.6829 21.6626 12.6829L21.6885 12.7148H21.6666L21.6427 12.6829H21.6347V12.7148H21.6168V12.6311H21.6566ZM21.6367 12.647V12.6689H21.6566C21.6606 12.6689 21.6646 12.6689 21.6686 12.6669C21.6706 12.6649 21.6726 12.661 21.6726 12.659C21.6726 12.655 21.6706 12.653 21.6686 12.651C21.6646 12.649 21.6606 12.649 21.6566 12.649H21.6367V12.647ZM12.428 12.7128V11.8358C12.428 11.5049 12.2167 11.2816 11.8779 11.2796C11.6985 11.2777 11.5151 11.3315 11.3856 11.5288C11.2879 11.3733 11.1364 11.2796 10.9231 11.2796C10.7736 11.2796 10.6281 11.3235 10.5125 11.4869V11.3135H10.2076V12.7128H10.5145V11.9374C10.5145 11.6942 10.6501 11.5647 10.8574 11.5647C11.0587 11.5647 11.1623 11.6962 11.1623 11.9334V12.7128H11.4693V11.9374C11.4693 11.6942 11.6088 11.5647 11.8121 11.5647C12.0194 11.5647 12.1191 11.6962 12.1191 11.9334V12.7128H12.428ZM14.1422 12.0132V11.3135H13.8392V11.483C13.7435 11.3574 13.596 11.2777 13.3967 11.2777C13.0041 11.2777 12.6971 11.5846 12.6971 12.0132C12.6971 12.4417 13.0041 12.7487 13.3967 12.7487C13.596 12.7487 13.7416 12.6689 13.8392 12.5434V12.7128H14.1442L14.1422 12.0132ZM13.01 12.0132C13.01 11.768 13.1715 11.5647 13.4346 11.5647C13.6857 11.5647 13.8572 11.758 13.8572 12.0132C13.8572 12.2683 13.6877 12.4616 13.4346 12.4616C13.1715 12.4616 13.01 12.2603 13.01 12.0132ZM20.658 11.2777C20.7617 11.2777 20.8633 11.2956 20.959 11.3335C21.0487 11.3693 21.1284 11.4212 21.1982 11.4889C21.266 11.5547 21.3198 11.6344 21.3557 11.7221C21.4314 11.9095 21.4314 12.1188 21.3557 12.3062C21.3198 12.3939 21.266 12.4736 21.1982 12.5394C21.1284 12.6071 21.0487 12.659 20.959 12.6948C20.7657 12.7706 20.5524 12.7706 20.3591 12.6948C20.2694 12.659 20.1876 12.6071 20.1199 12.5394C20.0521 12.4736 19.9983 12.3939 19.9624 12.3062C19.8867 12.1188 19.8867 11.9095 19.9624 11.7221C19.9983 11.6344 20.0521 11.5547 20.1199 11.4889C20.1876 11.4212 20.2694 11.3693 20.3591 11.3335C20.4527 11.2956 20.5544 11.2757 20.658 11.2777ZM20.658 11.5647C20.5982 11.5647 20.5384 11.5746 20.4846 11.5986C20.4328 11.6185 20.385 11.6504 20.3451 11.6903C20.3052 11.7301 20.2733 11.7799 20.2534 11.8318C20.2076 11.9494 20.2076 12.0789 20.2534 12.1965C20.2753 12.2503 20.3052 12.2982 20.3451 12.3381C20.385 12.3779 20.4328 12.4098 20.4846 12.4297C20.5963 12.4736 20.7198 12.4736 20.8334 12.4297C20.9391 12.3879 21.0248 12.3022 21.0667 12.1965C21.1105 12.0789 21.1105 11.9494 21.0667 11.8318C21.0447 11.778 21.0148 11.7301 20.973 11.6903C20.9331 11.6504 20.8853 11.6185 20.8334 11.5986C20.7756 11.5766 20.7178 11.5647 20.658 11.5647ZM15.7986 12.0132C15.7946 11.5766 15.5255 11.2777 15.1348 11.2777C14.7242 11.2777 14.4372 11.5766 14.4372 12.0132C14.4372 12.4576 14.7362 12.7487 15.1547 12.7487C15.366 12.7487 15.5594 12.6968 15.7288 12.5533L15.5793 12.3281C15.4637 12.4218 15.3202 12.4716 15.1727 12.4756C14.9774 12.4756 14.798 12.3839 14.7541 12.1327H15.7926C15.7966 12.0929 15.7986 12.055 15.7986 12.0132ZM14.7581 11.8896C14.79 11.6883 14.9136 11.5507 15.1308 11.5507C15.3262 11.5507 15.4537 11.6743 15.4856 11.8896H14.7581ZM17.2137 11.4252C17.0682 11.3295 16.8649 11.2796 16.6417 11.2796C16.2869 11.2796 16.0597 11.4491 16.0597 11.7281C16.0597 11.9573 16.2291 12.0969 16.542 12.1407L16.6855 12.1607C16.853 12.1846 16.9307 12.2284 16.9307 12.3062C16.9307 12.4138 16.8191 12.4756 16.6118 12.4756C16.4005 12.4756 16.249 12.4078 16.1454 12.3301L16.0019 12.5673C16.1693 12.6909 16.3786 12.7487 16.6078 12.7487C17.0124 12.7487 17.2456 12.5573 17.2456 12.2922C17.2456 12.047 17.0603 11.9175 16.7573 11.8736L16.6138 11.8537C16.4822 11.8358 16.3766 11.8098 16.3766 11.7162C16.3766 11.6145 16.4763 11.5527 16.6437 11.5527C16.7972 11.5547 16.9467 11.5966 17.0802 11.6723L17.2137 11.4252ZM18.5452 11.3135H18.0469V10.889H17.74V11.3135H17.4569V11.5926H17.74V12.2304C17.74 12.5553 17.8655 12.7487 18.2263 12.7487C18.3579 12.7487 18.5093 12.7068 18.607 12.641L18.5193 12.3799C18.4376 12.4297 18.3459 12.4557 18.2502 12.4596C18.0987 12.4596 18.0489 12.366 18.0489 12.2244V11.5926H18.5472L18.5452 11.3135ZM19.5976 11.2796C19.4222 11.2796 19.3086 11.3614 19.2289 11.485V11.3155H18.9279V12.7148H19.2329V11.9294C19.2329 11.6982 19.3325 11.5687 19.5319 11.5687C19.5976 11.5687 19.6614 11.5806 19.7212 11.6045L19.8149 11.3175C19.7451 11.2916 19.6714 11.2796 19.5976 11.2796Z" fill="#E2E2E2"/>
<path d="M6.32476 10.3508H4.48302V13.6596H6.32476V10.3508Z" fill="#C5C5C5"/>
<path d="M4.60062 12.0052C4.60062 11.3594 4.89562 10.7494 5.40389 10.3508C4.491 9.63125 3.1675 9.79071 2.44994 10.7036C1.73237 11.6165 1.88984 12.94 2.80274 13.6596C3.56614 14.2595 4.64049 14.2595 5.40389 13.6596C4.89562 13.2609 4.59863 12.651 4.60062 12.0052Z" fill="#999999"/>
<path d="M8.60701 13.3087V13.241H8.63491V13.227H8.56515V13.241H8.59305V13.3087H8.60701ZM8.74254 13.3087V13.227H8.72062L8.6967 13.2828L8.67278 13.227H8.65086V13.3087H8.6668V13.247L8.68873 13.3008H8.70467L8.7266 13.247V13.3087H8.74254Z" fill="#555555"/>
<path d="M8.80832 12.0052C8.80832 13.1672 7.86553 14.11 6.70348 14.11C6.23108 14.11 5.77463 13.9526 5.40389 13.6596C6.31679 12.942 6.47625 11.6185 5.75669 10.7036C5.65305 10.5721 5.53545 10.4525 5.40389 10.3508C6.31679 9.63125 7.64029 9.79071 8.35785 10.7036C8.64886 11.0743 8.80832 11.5328 8.80832 12.0052Z" fill="#E2E2E2"/>
</svg>
