<?xml version="1.0" encoding="utf-8"?>
<!-- Generator: Adobe Illustrator 22.0.1, SVG Export Plug-In . SVG Version: 6.00 Build 0)  -->
<svg version="1.1" id="Layer_1" xmlns="http://www.w3.org/2000/svg" xmlns:xlink="http://www.w3.org/1999/xlink" x="0px" y="0px"
	 viewBox="0 0 156.8 40.1" style="enable-background:new 0 0 156.8 40.1;" xml:space="preserve">
<style type="text/css">
	.st0{fill-rule:evenodd;clip-rule:evenodd;fill:#FFFFFF;}
</style>
<g>
	<path class="st0" d="M47.4,36.2c4.6-0.9,7.4-5.5,8.1-10c0.2-1.1-1.3-1.7-2.3-1.2c-1,0.5-1.4,0.8-2.6,1.8c-2.3,1.9-3.8,4.4-4.4,7.4
		C46,35.2,46.8,36.3,47.4,36.2L47.4,36.2z M79.7,37c1.2,0.3,2.2-0.7,2.4-1.6c0.6-2,0.3-4.1-0.5-5.9c-0.3,0.3-2.9,3.3-3.7,4.5
		C77.4,34.6,78.3,36.6,79.7,37L79.7,37z M109.1,35.4c0.3,1,1.7,0.9,2.4,0.5c3.8-1.7,6.4-6,6.6-10.1c0-0.8-1.1-1.3-2-0.9
		c-2.2,0.8-3.7,2.4-5.1,4.4C109.7,31.2,108.6,33.3,109.1,35.4L109.1,35.4z M143.5,25.6c0,0.1,3.8-2.8,6.1-5.7c2.3-2.9,3.3-6,3.3-6
		s-2.6,1.9-4.9,4.8C145.2,22.2,143.5,25.6,143.5,25.6L143.5,25.6z M68.6,20.5l0.1-0.1c1-1.4,1.4-3.3,0-4c-0.2-0.1-0.5,0.5-0.5,0.8
		C67.9,18.4,67.9,19.5,68.6,20.5L68.6,20.5z M66.6,23.7c-1.3-2.4-1.9-5.1-0.8-7.6c1-2.5,4.8-3.4,6.2-0.6c1.5,3.1-0.7,5.8-1.3,7
		c-0.2,0.4,1.8-0.2,2.5-0.2c1.5-0.1,2.4,1.4,1.7,2.6c-2.3,3.8-6.2,6.4-6.7,11c-0.1,1.1,2.7,0.5,6.1-2.3c0.1-0.1,6.1-7.4,10.7-13.1
		c1-1.3,4.6,0,3.4,1.7c-1,1.5-2,2.6-2.6,3.5c-0.9,1.3,1.4,2.2,1.2,7.1c1.7-1.3,4.5-3.1,4.6-3.3c2.9-6,5.9-13,8.8-19.2
		c0.7-1.5,4.6-0.8,3.7,1.2c-1.8,4.1-3.7,8.5-5.4,12.5c-0.1,0.2,3.1-1.8,3.3-2c2.2-0.7,3.1,1.2,3.4,2.6c0.8,3.2-2.7,7.6-4.3,10.7
		c-0.4,0.8,0.5,0.4,0.9,0.1c1.2-0.7,3.1-2.5,3.1-2.7c2.8-7.6,12-13.5,15.6-9.1c0.3-0.4,0.6-1,0.7-1c0.8-0.8,4-0.5,3.5,1
		c0,0.1-3.3,6.6-5.1,10c-0.4,0.8,0,2.8,1.1,2c1.7-1.2,4.2-3.8,4.3-4.1c2-5.6,8.5-16.9,17.2-21.5c1.5-0.8,4.2,0.2,3.3,2.5
		c-3,8-6.6,11.5-12,15.5c-0.1,0.1-0.2,0.1-0.2,0.2c-1.1,0.8-4.4,2.7-4.6,3.4c0,0.1-0.7,2.3-0.3,3.4c0.5,1.7,2.2,1.5,3.4,0.6
		c4.5-3.3,6.2-8.3,9.1-12.9c2.3-3.7,4.9-6.9,8.6-9.9c1.7-1.4,3.4-3.2,5.7-2.9c1,0.1,1.5,1.2,1.4,1.8c-1.7,7-5.9,11.7-10.3,15.2
		c-2,1.6-4,3.1-5.8,4.3c-0.5,0.3-1.6,6.6,3,4.4c2.2-1,4.5-4.3,5.8-5.9c0.7-0.8,1.8,0.3,1.3,1.4c-1.4,2.8-3.2,5.1-5.7,7
		c-1.8,1.5-4.1,2.2-6.3,1.3c-1.7-0.7-2.3-2.4-2.7-3.8c-1.6,1.9-3.9,3.5-6.3,4.1c-3.7,1-5.2-1.6-5.3-3.8c-2.3,1.9-6.8,6.6-9.1,1.6
		c-2.6,1.4-7.1,4.5-10.2-0.6c-2.1,1.4-4.6,3.9-7,2.4c-1.6-1-2.3-2.8-1.5-4.4c1.3-2.9,3.9-7.6,4.1-7.9c0.3-0.6-0.5-0.9-1-0.5
		c-2.1,1.7-3.8,3.1-3.9,3.3c-1.1,2.4-3.1,6.7-4.1,8.9c-0.6,1.4-3.2,1.3-3.9,0.3c-1-1.4,0.4-2.8,1-4.1c-2.9,2-5,4.1-8.1,4.7
		c-2.5,0.5-5.1-0.6-6.1-2.9c-2.9,1.5-6.2,4.4-9.3,2.1c-2.7-2-1.3-7,4.9-13c0.1-0.1,0.1-0.2,0-0.3l-1-0.4
		c-2.3,3.1-7.2,10.6-10.2,12.7c-3.3,2.2-5.5,2.8-7,0c-3.3,2.4-7.8,2.8-9.6-1l0,0C39.8,39,38,40.5,34,39.7c-1.9-0.4-2.9-2.2-3.1-4
		c-0.3-2.9,0.2-5.8,0.6-8.7c-2.5,4.2-4.8,8.9-8.3,12.5c-0.6,0.6-2.7,0.2-2.5-1c0.8-4.7,3.4-11.3,3.1-15.7
		C20.3,30.6,15,42.7,4.5,39.2c-7.4-2.5-5.6-15.8,4.7-11.7c1.2,0.5,0.5,2.7-0.6,2.3c-5-2-6.1,6.3-1,6.6c3.2,0.2,5.4-1.8,6.5-3.5
		c6.8-10.3,8.8-20.3,16.8-32.2c1.1-1.7,3.9,0,3,1.8c-1.3,2.5-2.4,5.3-3.5,8.8c-1.2,4-1.9,7.7-1.8,11.7C33.9,14.9,39.2,7,46.8,0.4
		c0.3-0.3,1-0.2,1.5,0c0.8,0.3,0.9,1.2,0.5,1.8c-8,12.5-15.6,25.3-13.8,32.9c0.4,1.6,1.5,1.3,2.8,1.1c1.3-0.2,4.2-2.8,4.5-3.4
		c1.9-5,5.7-9,10.9-10.3c1.7-0.5,3.5,0,4.8,1.2c0.7-1.5,2.8-1.7,3.8-0.6c0.2,0.2,0.2,0.9,0,1.2c-1.9,3.6-3.5,6.7-5.4,10
		c-0.1,0.3,0.2,0.8,0.6,0.7C59.7,34.1,63.4,28.3,66.6,23.7L66.6,23.7z M131.8,25.8c0.1,0.1,3.5-2.3,5.8-5c1.8-2.1,4.2-6.7,4.1-6.9
		c-0.2-0.1-2.9,2.4-5.3,5.1C134.6,21.2,131.8,25.8,131.8,25.8L131.8,25.8z"/>
</g>
</svg>
