<svg width="24" height="24" viewBox="0 0 24 24" fill="none" xmlns="http://www.w3.org/2000/svg">
<path d="M6.44673 18.6527V17.7674C6.452 17.693 6.44109 17.6183 6.41473 17.5483C6.38836 17.4783 6.34715 17.4147 6.29383 17.3616C6.24052 17.3086 6.17633 17.2673 6.10554 17.2406C6.03476 17.2139 5.95901 17.2024 5.88334 17.2068C5.78431 17.2004 5.68536 17.2203 5.59681 17.2645C5.50825 17.3086 5.43334 17.3753 5.37988 17.4576C5.33115 17.3777 5.26145 17.3123 5.17812 17.2681C5.09479 17.224 5.00091 17.2028 4.90638 17.2068C4.82397 17.2027 4.74191 17.2199 4.66832 17.2566C4.59473 17.2934 4.53217 17.3484 4.48682 17.4163V17.2422H4.17514V18.6527H4.4898V17.8707C4.483 17.8225 4.48714 17.7733 4.50191 17.7268C4.51668 17.6803 4.54173 17.6376 4.57525 17.6018C4.60878 17.566 4.64994 17.5379 4.69579 17.5196C4.74164 17.5013 4.79104 17.4932 4.84044 17.496C5.04722 17.496 5.15212 17.6288 5.15212 17.8678V18.6527H5.46678V17.8707C5.46049 17.8226 5.46498 17.7736 5.47995 17.7273C5.49491 17.6811 5.51998 17.6386 5.5534 17.6029C5.58681 17.5672 5.62776 17.5391 5.67337 17.5206C5.71898 17.5021 5.76815 17.4937 5.81741 17.496C6.03017 17.496 6.13206 17.6288 6.13206 17.8678V18.6527H6.44673ZM11.1038 17.2422H10.5943V16.8143H10.2797V17.2422H9.98897V17.5225H10.2797V18.1658C10.2797 18.4934 10.4085 18.6882 10.7771 18.6882C10.9148 18.6886 11.0499 18.6507 11.1667 18.579L11.0768 18.3163C10.9932 18.3654 10.8984 18.3928 10.8011 18.396C10.6453 18.396 10.5943 18.3015 10.5943 18.1599V17.5225H11.1038V17.2422ZM13.762 17.2068C13.686 17.2046 13.6108 17.2226 13.5443 17.259C13.4779 17.2953 13.4226 17.3486 13.3844 17.4133V17.2422H13.0757V18.6527H13.3874V17.8619C13.3874 17.6288 13.4892 17.4989 13.6931 17.4989C13.7597 17.498 13.8259 17.5101 13.8878 17.5343L13.9837 17.2451C13.9126 17.2201 13.8376 17.2071 13.762 17.2068V17.2068ZM9.74324 17.3543C9.56682 17.251 9.36398 17.1998 9.15886 17.2068C8.79624 17.2068 8.5625 17.3779 8.5625 17.6583C8.5625 17.8884 8.7363 18.0301 9.05695 18.0744L9.2038 18.095C9.37461 18.1186 9.45554 18.1629 9.45554 18.2425C9.45554 18.3517 9.34164 18.4137 9.12888 18.4137C8.95773 18.4186 8.7899 18.3666 8.65238 18.2661L8.50555 18.5052C8.68709 18.63 8.90454 18.6942 9.12589 18.6882C9.53944 18.6882 9.77917 18.4963 9.77917 18.2278C9.77917 17.9799 9.5904 17.8501 9.27873 17.8058L9.1319 17.7851C8.99702 17.7674 8.88915 17.7409 8.88915 17.6465C8.88915 17.5432 8.99101 17.4812 9.16185 17.4812C9.31871 17.4835 9.47239 17.5252 9.60838 17.6022L9.74324 17.3543ZM18.0924 17.2068C18.0164 17.2046 17.9412 17.2226 17.8747 17.259C17.8083 17.2953 17.753 17.3486 17.7148 17.4133V17.2422H17.4061V18.6527H17.7177V17.8619C17.7177 17.6288 17.8197 17.4989 18.0234 17.4989C18.0901 17.498 18.1563 17.51 18.2182 17.5343L18.3141 17.2451C18.243 17.2201 18.168 17.2071 18.0924 17.2068V17.2068ZM14.0766 17.9474C14.0725 18.0468 14.0895 18.1459 14.1266 18.2384C14.1637 18.3309 14.2201 18.4148 14.292 18.4845C14.364 18.5543 14.45 18.6085 14.5446 18.6435C14.6391 18.6786 14.74 18.6938 14.8408 18.6882C15.0279 18.6974 15.2118 18.6374 15.3563 18.5199L15.2064 18.272C15.0987 18.3529 14.9673 18.3974 14.8318 18.3989C14.715 18.392 14.6053 18.3414 14.5252 18.2575C14.445 18.1735 14.4003 18.0627 14.4003 17.9475C14.4003 17.8322 14.445 17.7214 14.5252 17.6375C14.6053 17.5536 14.715 17.5029 14.8318 17.496C14.9673 17.4975 15.0987 17.542 15.2064 17.6229L15.3563 17.375C15.2118 17.2575 15.0279 17.1975 14.8408 17.2068C14.74 17.2011 14.6391 17.2163 14.5446 17.2514C14.4501 17.2865 14.364 17.3406 14.2921 17.4104C14.2201 17.4801 14.1637 17.564 14.1266 17.6564C14.0895 17.7489 14.0725 17.8481 14.0766 17.9474V17.9474ZM16.9955 17.9474V17.2422H16.6839V17.4133C16.6307 17.3458 16.5618 17.2919 16.4831 17.2559C16.4044 17.22 16.318 17.2031 16.2313 17.2068C16.0382 17.2161 15.8561 17.2982 15.7228 17.4361C15.5895 17.574 15.5151 17.7571 15.5151 17.9475C15.5151 18.1379 15.5895 18.321 15.7228 18.4588C15.8561 18.5967 16.0382 18.6788 16.2313 18.6882C16.318 18.6918 16.4044 18.6749 16.4831 18.639C16.5618 18.6031 16.6307 18.5491 16.6839 18.4816V18.6527H16.9955V17.9474ZM15.8357 17.9474C15.8406 17.8642 15.8701 17.7842 15.9205 17.7172C15.971 17.6503 16.0403 17.5994 16.1198 17.5707C16.1993 17.5421 16.2856 17.537 16.368 17.556C16.4504 17.5751 16.5254 17.6175 16.5836 17.678C16.6419 17.7385 16.6808 17.8145 16.6958 17.8966C16.7107 17.9786 16.7009 18.0632 16.6676 18.1399C16.6343 18.2165 16.5789 18.2819 16.5083 18.3279C16.4377 18.374 16.355 18.3986 16.2703 18.3989C16.211 18.3997 16.1521 18.3884 16.0974 18.3657C16.0427 18.343 15.9934 18.3093 15.9526 18.2669C15.9118 18.2245 15.8803 18.1742 15.8602 18.1192C15.8401 18.0642 15.8318 18.0057 15.8357 17.9474V17.9474ZM12.0748 17.2068C11.8804 17.2169 11.6976 17.3007 11.5646 17.4406C11.4316 17.5806 11.3589 17.7658 11.3616 17.9574C11.3643 18.149 11.4423 18.3322 11.5791 18.4684C11.716 18.6047 11.9012 18.6834 12.0957 18.6882C12.3096 18.6955 12.5187 18.6252 12.6831 18.4904L12.5303 18.2632C12.4119 18.3566 12.2654 18.4085 12.1137 18.4107C12.0107 18.4193 11.9084 18.388 11.8284 18.3236C11.7484 18.2591 11.6971 18.1666 11.6852 18.0655H12.7491C12.752 18.0271 12.755 17.9888 12.755 17.9474C12.7521 17.5078 12.4763 17.2068 12.0748 17.2068V17.2068ZM12.0688 17.4812C12.1629 17.4794 12.2539 17.5144 12.3219 17.5786C12.3899 17.6427 12.4292 17.7308 12.4314 17.8235H11.6882C11.6936 17.7288 11.7365 17.64 11.8076 17.576C11.8788 17.512 11.9725 17.478 12.0688 17.4812V17.4812ZM19.8875 17.9474V16.6756H19.5758V17.4133C19.5226 17.3458 19.4537 17.2919 19.375 17.2559C19.2963 17.22 19.21 17.2031 19.1233 17.2068C18.9301 17.2161 18.7481 17.2982 18.6147 17.4361C18.4814 17.574 18.407 17.7571 18.407 17.9475C18.407 18.1379 18.4814 18.321 18.6147 18.4589C18.7481 18.5967 18.9301 18.6788 19.1233 18.6882C19.21 18.6918 19.2963 18.6749 19.375 18.639C19.4537 18.6031 19.5226 18.5491 19.5758 18.4816V18.6527H19.8875V17.9474ZM20.407 18.4483C20.4263 18.4482 20.4455 18.4519 20.4634 18.4593C20.4805 18.4664 20.4962 18.4766 20.5094 18.4894C20.5226 18.5022 20.5332 18.5173 20.5405 18.5341C20.548 18.5512 20.5518 18.5697 20.5518 18.5884C20.5518 18.6071 20.548 18.6256 20.5405 18.6428C20.5331 18.6595 20.5226 18.6746 20.5094 18.6873C20.4961 18.7001 20.4805 18.7104 20.4634 18.7175C20.4456 18.725 20.4264 18.7289 20.407 18.7287C20.3785 18.729 20.3505 18.721 20.3266 18.7057C20.3027 18.6905 20.2838 18.6686 20.2725 18.6428C20.265 18.6256 20.2612 18.6071 20.2612 18.5884C20.2612 18.5697 20.265 18.5512 20.2725 18.5341C20.2798 18.5174 20.2903 18.5022 20.3034 18.4894C20.3166 18.4765 20.3324 18.4663 20.3496 18.4593C20.3678 18.4519 20.3873 18.4482 20.407 18.4483V18.4483ZM20.407 18.6978C20.4218 18.6979 20.4364 18.695 20.4499 18.6892C20.463 18.6836 20.4748 18.6757 20.4848 18.6658C20.5055 18.6453 20.5171 18.6175 20.5171 18.5885C20.5171 18.5595 20.5055 18.5318 20.4848 18.5112C20.4748 18.5013 20.463 18.4935 20.4499 18.488C20.4364 18.4823 20.4217 18.4795 20.407 18.4796C20.392 18.4795 20.3771 18.4823 20.3632 18.488C20.35 18.4934 20.3379 18.5013 20.3278 18.5112C20.3071 18.5318 20.2955 18.5595 20.2955 18.5885C20.2955 18.6175 20.3071 18.6453 20.3278 18.6658C20.338 18.6758 20.35 18.6837 20.3632 18.6892C20.3771 18.695 20.392 18.6979 20.407 18.6978V18.6978ZM20.4154 18.5229C20.4294 18.522 20.4433 18.5259 20.4547 18.5341C20.4592 18.5377 20.4628 18.5424 20.4652 18.5477C20.4676 18.5529 20.4687 18.5587 20.4684 18.5645C20.4686 18.5694 20.4677 18.5743 20.4658 18.5789C20.4639 18.5835 20.4611 18.5876 20.4574 18.5911C20.4488 18.5987 20.4378 18.6032 20.4262 18.604L20.4695 18.6531H20.4356L20.3955 18.6043H20.3826V18.6531H20.3543V18.5229H20.4154ZM20.3826 18.5473V18.582H20.415C20.4213 18.5823 20.4275 18.5808 20.4328 18.5777C20.435 18.5762 20.4368 18.5743 20.4379 18.5719C20.4391 18.5696 20.4396 18.567 20.4395 18.5645C20.4396 18.5619 20.4391 18.5594 20.4379 18.5571C20.4367 18.5549 20.435 18.5529 20.4328 18.5516C20.4275 18.5485 20.4213 18.547 20.415 18.5473H20.3826ZM18.7277 17.9474C18.7325 17.8642 18.762 17.7842 18.8125 17.7172C18.8629 17.6503 18.9322 17.5994 19.0117 17.5707C19.0912 17.5421 19.1775 17.537 19.2599 17.5561C19.3424 17.5752 19.4173 17.6176 19.4755 17.6781C19.5338 17.7386 19.5728 17.8146 19.5877 17.8966C19.6026 17.9787 19.5928 18.0633 19.5595 18.1399C19.5261 18.2165 19.4708 18.2819 19.4002 18.3279C19.3296 18.374 19.2469 18.3986 19.1622 18.3989C19.1029 18.3997 19.044 18.3884 18.9893 18.3657C18.9347 18.343 18.8853 18.3093 18.8445 18.2669C18.8037 18.2245 18.7722 18.1742 18.7521 18.1192C18.732 18.0642 18.7237 18.0057 18.7277 17.9474V17.9474ZM8.20287 17.9474V17.2422H7.89119V17.4133C7.83799 17.3458 7.76915 17.2919 7.69042 17.2559C7.61169 17.22 7.52537 17.2031 7.43867 17.2068C7.24555 17.2161 7.06347 17.2982 6.93014 17.4361C6.79681 17.574 6.72244 17.7571 6.72244 17.9475C6.72244 18.1379 6.79681 18.321 6.93014 18.4588C7.06347 18.5967 7.24555 18.6788 7.43867 18.6882C7.52537 18.6918 7.61169 18.6749 7.69042 18.639C7.76915 18.6031 7.83799 18.5491 7.89119 18.4816V18.6527H8.20287V17.9474ZM7.04311 17.9474C7.04795 17.8642 7.07743 17.7842 7.1279 17.7172C7.17837 17.6503 7.24763 17.5994 7.32714 17.5707C7.40666 17.5421 7.49294 17.537 7.57536 17.5561C7.65778 17.5752 7.73273 17.6176 7.79096 17.6781C7.8492 17.7386 7.88818 17.8146 7.90309 17.8966C7.918 17.9787 7.9082 18.0633 7.87488 18.1399C7.84157 18.2165 7.7862 18.2819 7.71561 18.3279C7.64502 18.374 7.5623 18.3986 7.47764 18.3989C7.41829 18.3997 7.35943 18.3884 7.30475 18.3657C7.25007 18.343 7.20077 18.3093 7.15994 18.2669C7.11912 18.2245 7.08767 18.1742 7.06756 18.1192C7.04745 18.0642 7.03913 18.0057 7.04311 17.9474V17.9474Z" fill="white"/>
<path d="M14.3603 6.49246H9.63971V14.8457H14.3603V6.49246Z" fill="#999999"/>
<path d="M9.9395 10.6691C9.93875 9.86458 10.1239 9.07048 10.4809 8.34688C10.8379 7.62328 11.3574 6.98913 12.0001 6.49245C11.2042 5.87645 10.2484 5.49338 9.24186 5.387C8.23533 5.28062 7.21872 5.45524 6.30822 5.89089C5.39772 6.32655 4.63005 7.00566 4.09298 7.85061C3.55592 8.69556 3.2711 9.67225 3.2711 10.6691C3.2711 11.6659 3.55592 12.6426 4.09298 13.4875C4.63005 14.3325 5.39772 15.0116 6.30822 15.4472C7.21872 15.8829 8.23533 16.0575 9.24186 15.9511C10.2484 15.8447 11.2042 15.4617 12.0001 14.8457C11.3574 14.349 10.8379 13.7148 10.4809 12.9912C10.1239 12.2676 9.93876 11.4735 9.9395 10.6691V10.6691Z" fill="#555555"/>
<path d="M20.7288 10.6691C20.7288 11.6658 20.444 12.6425 19.907 13.4875C19.37 14.3324 18.6023 15.0115 17.6918 15.4472C16.7814 15.8829 15.7648 16.0575 14.7582 15.9511C13.7517 15.8447 12.7959 15.4617 12.0001 14.8457C12.6422 14.3485 13.1613 13.7142 13.5182 12.9907C13.8752 12.2672 14.0606 11.4734 14.0606 10.6691C14.0606 9.86471 13.8752 9.07086 13.5182 8.34737C13.1613 7.62388 12.6422 6.98963 12.0001 6.49245C12.7959 5.87645 13.7517 5.49337 14.7582 5.387C15.7648 5.28062 16.7814 5.45524 17.6918 5.8909C18.6023 6.32656 19.37 7.00568 19.907 7.85063C20.444 8.69558 20.7288 9.67226 20.7288 10.6691V10.6691Z" fill="#E2E2E2"/>
<path d="M20.214 13.9607V13.7897H20.284V13.7548H20.1057V13.7897H20.1757V13.9607H20.214ZM20.5603 13.9607V13.7545H20.5056L20.4427 13.8963L20.3798 13.7545H20.3251V13.9607H20.3637V13.8051L20.4227 13.9392H20.4627L20.5217 13.8048V13.9607H20.5603Z" fill="#E2E2E2"/>
</svg>
