<svg width="24" height="24" viewBox="0 0 24 24" fill="none" xmlns="http://www.w3.org/2000/svg">
<path d="M9.83392 9.10371L7.47771 14.7259H5.94026L4.77944 10.2391C4.7103 9.96432 4.64844 9.86243 4.43374 9.74598C4.0844 9.55494 3.50763 9.37845 3 9.26746L3.03457 9.10371H5.50905C5.82381 9.10371 6.10765 9.31295 6.18043 9.67684L6.79359 12.9319L8.30557 9.10371H9.83392ZM15.8582 12.8918C15.8636 11.409 13.8076 11.3253 13.8204 10.663C13.824 10.461 14.0169 10.2463 14.4372 10.1918C14.6464 10.1645 15.2195 10.1426 15.8709 10.4428L16.1256 9.24927C15.7763 9.1219 15.3251 9 14.7665 9C13.3291 9 12.3175 9.76418 12.3084 10.8577C12.2993 11.6673 13.0307 12.1186 13.582 12.3879C14.1497 12.6626 14.3389 12.8409 14.3371 13.0865C14.3335 13.4632 13.8841 13.6305 13.4674 13.6378C12.736 13.6487 12.312 13.4395 11.9736 13.283L11.708 14.5148C12.0482 14.6713 12.6759 14.8059 13.3255 14.8132C14.8538 14.815 15.8545 14.0599 15.8582 12.8918ZM19.6554 14.7259H21L19.8246 9.10371H18.5837C18.3126 9.10189 18.067 9.26382 17.9633 9.51673L15.7799 14.7259H17.3083L17.6121 13.8871H19.4789L19.6554 14.7259ZM18.0324 12.7354L18.7984 10.6248L19.2388 12.7354H18.0324ZM11.9118 9.10371L10.7091 14.7259H9.25533L10.458 9.10371H11.9118Z" fill="#E2E2E2"/>
</svg>
